<?xml version="1.0" standalone="no"?>
<!DOCTYPE svg PUBLIC "-//W3C//DTD SVG 20010904//EN"
 "http://www.w3.org/TR/2001/REC-SVG-20010904/DTD/svg10.dtd">
<svg version="1.0" xmlns="http://www.w3.org/2000/svg"
 width="600.000000pt" height="600.000000pt" viewBox="0 0 600.000000 600.000000"
 preserveAspectRatio="xMidYMid meet">
<metadata>
Created by potrace 1.14, written by Peter Selinger 2001-2017
</metadata>
<g transform="translate(0.000000,600.000000) scale(0.100000,-0.100000)"
fill="#000000" stroke="none">
<path d="M2818 5995 c-2 -1 -41 -5 -88 -9 -47 -3 -96 -8 -110 -10 -14 -2 -47
-8 -75 -12 -27 -4 -55 -8 -62 -10 -6 -1 -31 -5 -54 -8 -67 -9 -296 -72 -424
-116 -225 -78 -450 -190 -665 -332 -90 -60 -203 -141 -220 -158 -3 -3 -41 -36
-85 -74 -277 -240 -514 -537 -688 -863 -62 -117 -78 -151 -142 -309 -77 -187
-159 -503 -181 -694 -1 -14 -6 -59 -11 -100 -10 -93 -10 -502 1 -590 4 -36 9
-81 11 -100 9 -79 37 -225 65 -336 245 -993 995 -1801 1970 -2124 74 -24 322
-90 360 -95 14 -2 52 -8 85 -13 176 -31 299 -39 540 -37 116 2 233 6 260 10
408 55 683 133 980 275 628 301 1128 803 1428 1433 85 179 182 455 213 612 19
95 36 187 40 220 3 22 7 51 10 65 24 143 24 658 -1 750 -2 8 -6 38 -10 65 -3
28 -8 57 -10 65 -2 8 -7 33 -10 55 -3 22 -17 87 -31 145 -173 725 -612 1360
-1231 1780 -72 50 -134 90 -136 90 -3 0 -34 18 -69 39 -79 48 -294 152 -374
181 -134 49 -200 72 -218 75 -11 3 -40 11 -65 19 -78 25 -176 49 -251 61 -25
4 -54 9 -65 11 -11 3 -54 9 -95 15 -41 5 -91 12 -110 15 -37 6 -476 14 -482 9z"/>
</g>
</svg>
